<svg xmlns="http://www.w3.org/2000/svg" width="800" height="800" viewBox="-19.5 -19.5 800 800"><path fill="#F9EC93" d="M380.5 380.5c-49.244 0-84.426-73.486-64.126-118.35 52.886-116.889-69.441-216.754-62.299-208.816 3.534 3.928 200.939 106.027 200.939 238.004 0 49.244-25.271 89.162-74.514 89.162z"/><path fill="#FF9700" d="M522.446 59.763c-.017.311.204 1.346.61 3.021-.248-3.137-.541-4.313-.61-3.021z"/><path fill="#FF9D00" d="M523.057 62.784c1.806 22.75 1.29 148.913-104.214 188.687-13.843 5.218-25.968 15.808-35.219 29.009l-.015.022c-.641.915-1.266 1.843-1.879 2.782l-.133.204a104.643 104.643 0 0 0-3.544 5.873l-.141.253a107.054 107.054 0 0 0-3.179 6.166l-.027.057a109.05 109.05 0 0 0-1.382 3.036l-.125.287a108.133 108.133 0 0 0-2.516 6.333l-.131.366a104.748 104.748 0 0 0-1.057 3.1l-.024.074a103.366 103.366 0 0 0-1.004 3.301c-.021.07-.039.141-.059.211a106.77 106.77 0 0 0-.802 2.995l-.113.447a99.855 99.855 0 0 0-1.461 6.956 97.869 97.869 0 0 0-.458 2.906l-.044.298a93.473 93.473 0 0 0-.386 3.214c-.014.137-.025.274-.039.412a88.377 88.377 0 0 0-.267 3.376 83.784 83.784 0 0 0-.141 6.185c.003.229.009.458.015.688.021.866.054 1.729.103 2.587.01.165.016.33.026.494.063 1.003.147 2.001.25 2.993.02.185.043.367.064.551.091.816.196 1.628.315 2.436.036.243.071.485.109.727.305 1.933.69 3.838 1.158 5.709.062.248.127.493.192.74.199.757.412 1.508.638 2.253.058.188.111.379.17.567.285.903.59 1.797.917 2.681.071.193.149.384.222.576.271.71.556 1.413.854 2.109.103.239.204.477.309.714a53.608 53.608 0 0 0 1.214 2.564c.423.831.876 1.646 1.343 2.452.131.227.267.451.401.676.386.644.786 1.279 1.2 1.906.116.176.227.354.345.528.524.771 1.07 1.528 1.638 2.272.128.168.263.331.394.497.466.594.947 1.179 1.443 1.754.174.202.347.404.524.604a49.512 49.512 0 0 0 1.962 2.094c34.82 34.82 80.915 24.462 115.736-10.359 87.824-87.834 33.309-280.575 26.818-307.363z"/><path fill="#FF3C00" d="M498.851 316.374c-29.309-13.261-70.827-2.842-96.099 19.705l-.001.001a83.052 83.052 0 0 0-4.498 4.327l-.256.268c-.679.71-1.345 1.43-1.991 2.16l-.04.045a72.584 72.584 0 0 0-3.819 4.698l-.239.324a66.701 66.701 0 0 0-1.617 2.287l-.067.097a63.533 63.533 0 0 0-3.054 5.031l-.201.372a59.534 59.534 0 0 0-1.222 2.402c-.022.048-.047.095-.07.144a56.24 56.24 0 0 0-2.205 5.329l-.144.412a53.637 53.637 0 0 0-.8 2.506l-.055.184a51.226 51.226 0 0 0-1.687 8.628c-.008.075-.019.15-.026.226a49.292 49.292 0 0 0-.26 4.984c0 49.243 39.918 74.513 89.163 74.513 124.207 0 221.947-174.839 236.298-198.371-14.809 17.36-104.383 106.206-207.11 59.728z"/><path fill="#CC1A02" d="M380.5 380.5c34.821-34.821 111.66-7.736 129.031 38.342 45.258 120.049 202.37 104.167 191.707 103.603-5.276-.277-217.057 67.112-310.379-26.209-34.821-34.82-45.178-80.916-10.359-115.736z"/><path fill="#FF5B00" d="M380.5 380.5c49.245-.001 84.425 73.485 64.126 118.35-52.885 116.89 69.441 216.755 62.3 208.815-3.535-3.927-200.938-106.027-200.939-238.003.001-49.243 25.271-89.162 74.513-89.162z"/><path fill="#FF9D00" d="M380.5 380.5c34.822 34.821 7.737 111.659-38.343 129.031-120.048 45.258-104.167 202.37-103.602 191.707.277-5.275-67.111-217.058 26.209-310.378 34.821-34.822 80.916-45.179 115.736-10.36z"/><path fill="#FF3C00" d="M380.5 380.5c0 49.244-73.485 84.425-118.35 64.126-116.89-52.886-216.755 69.441-208.817 62.3 3.929-3.534 106.027-200.94 238.005-200.94 49.244.001 89.162 25.272 89.162 74.514z"/><path fill="#FFB600" d="M59.763 238.555c.311.016 1.346-.204 3.021-.61-3.137.249-4.313.542-3.021.61zM254.075 53.334c.208.231 1.095.807 2.567 1.704-2.393-2.041-3.433-2.665-2.567-1.704z"/><path fill="#FF3C00" d="M398.253 340.406l-.256.268c-.679.71-1.345 1.43-1.991 2.16l-.04.045a72.584 72.584 0 0 0-3.819 4.698l-.239.324a66.701 66.701 0 0 0-1.617 2.287l-.067.097a63.533 63.533 0 0 0-3.054 5.031l-.201.372a59.534 59.534 0 0 0-1.222 2.402c-.022.048-.047.095-.07.144a56.24 56.24 0 0 0-2.205 5.329l-.144.412a53.637 53.637 0 0 0-.8 2.506l-.055.184a51.226 51.226 0 0 0-1.687 8.628c-.008.075-.019.15-.026.226a49.292 49.292 0 0 0-.26 4.984c14.694-12.689 22.153-28.883 22.268-44.511a137.472 137.472 0 0 0-4.515 4.414z"/><path fill="#CC1A02" d="M380.5 380.5c-34.82 34.821-111.66 7.736-129.03-38.342C206.213 222.109 49.099 237.992 59.763 238.555c5.277.278 217.058-67.113 310.379 26.209 34.822 34.821 45.178 80.917 10.358 115.736z"/><path fill="#FF5B00" d="M254.075 53.334c.208.231 1.095.807 2.567 1.704-2.393-2.041-3.433-2.665-2.567-1.704zM418.843 251.47c9.487-3.577 18.124-7.854 25.988-12.69-37.678-98.426-168.098-171.488-188.189-183.742 17.361 14.808 106.211 104.383 59.732 207.112-20.299 44.864 14.883 118.35 64.126 118.35-34.82-34.82-7.735-111.66 38.343-129.03z"/><path fill="#FF9D00" d="M384.5 279.5l-.938 1c-.006 0 1.021-.996 1.016-.988-.641.914-2.25 2.837-2.863 3.776-.044.068-.081.133-.125.201a104.557 104.557 0 0 0-3.54 5.872l-.139.252a107.04 107.04 0 0 0-3.178 6.166l-.026.057a109.05 109.05 0 0 0-1.382 3.036l-.125.287a108.133 108.133 0 0 0-2.516 6.333l-.131.366a104.748 104.748 0 0 0-1.057 3.1l-.024.074a103.366 103.366 0 0 0-1.004 3.301c-.021.07-.039.141-.059.211a106.77 106.77 0 0 0-.802 2.995l-.113.447a99.855 99.855 0 0 0-1.461 6.956 97.869 97.869 0 0 0-.458 2.906l-.044.298a93.473 93.473 0 0 0-.386 3.214c-.014.137-.025.274-.039.412a88.377 88.377 0 0 0-.267 3.376 83.784 83.784 0 0 0-.141 6.185c.003.229.009.458.015.688.021.866.054 1.729.103 2.587.01.165.016.33.026.494.063 1.003.147 2.001.25 2.993.02.185.043.367.064.551.091.816.196 1.628.315 2.436.036.243.071.485.109.727.305 1.933.69 3.838 1.158 5.709.062.248.127.493.192.74.199.757.412 1.508.638 2.253.058.188.111.379.17.567.285.903.59 1.797.917 2.681.071.193.149.384.222.576.271.71.556 1.413.854 2.109.103.239.204.477.309.714a53.608 53.608 0 0 0 1.214 2.564c.423.831.876 1.646 1.343 2.452.131.227.267.451.401.676.386.644.786 1.279 1.2 1.906.116.176.227.354.345.528.524.771 1.07 1.528 1.638 2.272.128.168.263.331.394.497.466.594.947 1.179 1.443 1.754.174.202.347.404.524.604.634.712 1.22 1.425 1.9 2.104 8.024-8.024 13.762-16.731 17.393-25.797a66.885 66.885 0 0 0 4.511-18.525c1.842-19.236-4.621-39.06-17.846-56.693z"/><path fill="#FF3C00" d="M398.253 340.406l-.256.268c-.679.71-1.345 1.43-1.991 2.16l-.04.045a72.584 72.584 0 0 0-3.819 4.698l-.239.324a66.701 66.701 0 0 0-1.617 2.287l-.067.097a63.533 63.533 0 0 0-3.054 5.031l-.201.372a59.534 59.534 0 0 0-1.222 2.402c-.022.048-.047.095-.07.144a56.24 56.24 0 0 0-2.205 5.329l-.144.412a53.637 53.637 0 0 0-.8 2.506l-.055.184a51.226 51.226 0 0 0-1.687 8.628c-.008.075-.019.15-.026.226a49.292 49.292 0 0 0-.26 4.984c13.733-12.603 20.931-27.651 22.268-44.511a137.472 137.472 0 0 0-4.515 4.414z"/><path fill="#4D4D4D" d="M188.934 312.904c-13.166-8.826-27.67-16.394-43.608-21.914-51.092-17.695-95.958-24.917-126.571-28.797C6.584 299.431 0 339.196 0 380.5c0 36.688 5.199 72.161 14.889 105.729 31.062-48.35 101.103-129.227 174.045-173.325zM62.889 387.153c-19.33 0-35-15.671-35-35s15.67-35 35-35c19.329 0 35 15.67 35 35s-15.671 35-35 35zM612.5 278.5c47.732-23.174 84.079-49.232 108.469-68.061-34.188-68.315-88.33-124.908-154.788-162.134 11.908 58.304 18.72 164.714-2.634 246.034 16.416-3.024 32.927-8.058 48.953-15.839zm17.389-134.347c19.329 0 35 15.67 35 35s-15.671 35.001-35 35.001c-19.33 0-35-15.671-35-35.001s15.67-35 35-35zM448.594 191.141c9.471-13.746 17.586-28.98 23.416-45.815 17.572-50.736 24.817-95.338 28.717-125.934C462.937 6.816 422.515 0 380.5 0c-36.417 0-71.636 5.12-104.983 14.672 49.568 32.524 130.396 103.392 173.077 176.469zM409.889 27.153c19.329 0 35 15.67 35 35s-15.671 35.001-35 35.001c-19.33 0-35-15.671-35-35.001s15.67-35 35-35zM746.927 277.636c-33.126 49.726-103.022 128.88-175.067 170.958 13.746 9.471 28.98 17.585 45.815 23.416 49.688 17.209 93.488 24.513 124.016 28.47C754.214 462.76 761 422.424 761 380.5c0-35.646-4.907-70.145-14.073-102.864zm-49.038 168.517c-19.33 0-35-15.671-35-35.001 0-19.329 15.67-35 35-35 19.329 0 35 15.67 35 35s-15.671 35.001-35 35.001zM468.661 563.546c3.023 16.417 8.058 32.928 15.839 48.954 22.941 47.253 48.717 83.36 67.499 107.743 67.516-34.148 123.472-87.826 160.439-153.61-58.76 11.625-163.494 17.995-243.777-3.087zm150.228 64.606c0 19.33-15.671 35.001-35 35.001-19.33 0-35-15.671-35-35.001 0-19.329 15.67-34.999 35-34.999 19.329 0 35 15.67 35 34.999zM314.407 571.859c-9.471 13.746-17.586 28.98-23.417 45.815-17.33 50.035-24.613 94.098-28.552 124.651C299.606 754.445 339.287 761 380.5 761c36.158 0 71.138-5.044 104.274-14.466-49.759-33.283-128.456-102.915-170.367-174.675zm40.482 163.294c-19.33 0-35-15.671-35-35.001 0-19.329 15.67-34.999 35-34.999 19.329 0 35 15.67 35 34.999 0 19.33-15.671 35.001-35 35.001zM294.338 199.454c-3.023-16.417-8.058-32.927-15.838-48.954-23.635-48.682-50.269-85.518-69.174-109.907C140.739 75.2 84.058 129.953 47.055 197.08c58.021-12.068 165.375-19.135 247.283 2.374zm-149.45-66.301c0-19.33 15.67-35 35-35 19.329 0 35 15.67 35 35s-15.67 35.001-35 35.001c-19.329 0-35-15.672-35-35.001zM152.5 480.5c-50.139 24.343-87.719 51.869-112.069 70.854 34.52 68.573 89.167 125.271 156.188 162.337-11.969-59.441-18.605-167.532 3.867-248.854-16.098 3.041-32.275 8.035-47.986 15.663zm-15.611 139.653c-19.33 0-35-15.671-35-35.001 0-19.329 15.67-34.999 35-34.999 19.329 0 35 15.67 35 34.999-.001 19.33-15.671 35.001-35 35.001z"/></svg>